<?xml version="1.0" standalone="no"?>
<!DOCTYPE svg PUBLIC "-//W3C//DTD SVG 20010904//EN"
 "http://www.w3.org/TR/2001/REC-SVG-20010904/DTD/svg10.dtd">
<svg version="1.0" xmlns="http://www.w3.org/2000/svg"
 width="495.000000pt" height="495.000000pt" viewBox="0 0 495.000000 495.000000"
 preserveAspectRatio="xMidYMid meet">
<metadata>
Created by potrace 1.14, written by Peter Selinger 2001-2017
</metadata>
<g transform="translate(0.000000,495.000000) scale(0.100000,-0.100000)"
fill="#000000" stroke="none">
<path d="M2298 4945 c-2 -2 -40 -5 -86 -9 -45 -3 -92 -8 -105 -11 -12 -3 -33
-7 -47 -9 -14 -3 -35 -7 -46 -10 -12 -2 -37 -7 -55 -10 -19 -3 -68 -15 -109
-26 -41 -11 -85 -23 -97 -25 -12 -3 -35 -10 -50 -17 -16 -6 -32 -12 -38 -13
-5 -2 -39 -14 -75 -28 -472 -179 -897 -518 -1172 -935 -32 -48 -61 -92 -65
-98 -14 -18 -29 -46 -88 -164 -69 -140 -76 -155 -110 -250 -15 -41 -32 -88
-38 -105 -7 -16 -12 -34 -14 -40 -6 -27 -13 -56 -32 -125 -11 -41 -23 -91 -25
-110 -5 -37 -13 -82 -21 -115 -27 -123 -26 -681 1 -726 2 -4 6 -27 8 -53 3
-26 7 -50 10 -54 2 -4 7 -28 10 -54 4 -25 13 -66 22 -90 8 -24 17 -58 20 -76
3 -19 14 -54 25 -79 10 -24 19 -50 19 -57 0 -46 223 -497 261 -526 3 -3 12
-16 19 -29 7 -14 17 -30 21 -35 5 -6 35 -45 66 -86 32 -41 67 -86 78 -99 29
-35 255 -262 286 -288 125 -100 185 -142 374 -261 133 -83 472 -219 614 -247
11 -2 25 -6 29 -9 4 -2 27 -7 52 -11 25 -4 47 -8 50 -10 4 -2 29 -7 56 -11 27
-3 52 -8 56 -10 29 -18 513 -26 654 -12 103 11 302 52 424 88 509 152 961 467
1278 893 68 92 182 268 182 282 0 4 9 20 21 36 11 16 17 29 14 29 -3 0 3 13
14 29 12 16 21 32 21 35 0 3 13 34 28 68 38 84 111 283 118 323 1 6 12 51 24
100 12 49 24 103 27 120 2 16 6 41 9 55 7 37 14 86 23 165 9 75 8 475 -1 490
-3 6 -9 38 -12 72 -4 35 -8 68 -11 75 -2 7 -6 29 -9 48 -13 85 -18 116 -24
125 -4 6 -7 12 -7 15 -2 14 -27 117 -32 130 -4 8 -7 17 -8 20 -4 19 -40 120
-50 145 -51 122 -74 173 -121 263 -153 293 -385 574 -639 775 -33 26 -67 53
-75 61 -32 29 -220 147 -320 200 -216 114 -482 207 -690 242 -8 1 -44 7 -80
14 -36 6 -85 13 -110 16 -50 6 -447 13 -452 9z"/>
</g>
</svg>
